<svg width="16" height="16" viewBox="0 0 16 16" fill="none" xmlns="http://www.w3.org/2000/svg">
<path fill-rule="evenodd" clip-rule="evenodd" d="M10.6572 1.9165C7.56102 1.9165 5.35699 2.60278 3.91927 3.84996C2.46318 5.11308 1.91232 6.84636 1.90723 8.6644L1.90723 8.6665C1.90723 9.30451 1.91011 10.6121 2.96686 11.9726C2.78588 12.5933 2.66244 13.2434 2.58759 13.917C2.54185 14.3287 2.8385 14.6995 3.25018 14.7452C3.66186 14.791 4.03268 14.4943 4.07842 14.0826C4.13024 13.6162 4.20717 13.1719 4.31096 12.7498H5.99056H5.99989C8.2025 12.7498 10.1701 12.1651 11.6265 10.7081C13.0756 9.25834 13.9092 7.05396 14.082 4.04281C14.0828 4.0285 14.0832 4.01417 14.0832 3.99984V2.6665C14.0832 2.25229 13.7474 1.9165 13.3332 1.9165H10.6572ZM4.84041 11.2498H5.99056H5.99989C7.94262 11.2498 9.47504 10.7386 10.5656 9.64761C11.6607 8.55211 12.4201 6.76282 12.5832 3.97811V3.4165H10.6572C7.75343 3.4165 5.96213 4.06356 4.90219 4.98304C3.86083 5.88639 3.41167 7.15275 3.40723 8.66759L3.40723 8.67255C3.40722 9.05027 3.40721 9.60634 3.67231 10.2397C3.78608 10.0299 3.90926 9.82501 4.0423 9.62544C4.87859 8.37101 6.07811 7.36642 7.69507 6.64777C8.07358 6.47954 8.5168 6.65001 8.68503 7.02853C8.85326 7.40704 8.68279 7.85026 8.30428 8.01849C6.92123 8.63317 5.95409 9.46192 5.29038 10.4575C5.12305 10.7085 4.97332 10.9726 4.84041 11.2498Z" fill="white"/>
</svg>
