<svg width="14" height="14" viewBox="0 0 14 14" fill="none" xmlns="http://www.w3.org/2000/svg">
<path d="M5.54984 12.8002C4.40539 12.478 3.47206 11.8475 2.74984 10.9089C2.02762 9.9702 1.6665 8.88953 1.6665 7.66686C1.6665 7.03353 1.77206 6.43064 1.98317 5.8582C2.19428 5.28575 2.49428 4.76086 2.88317 4.28353C3.00539 4.1502 3.15539 4.08064 3.33317 4.07486C3.51095 4.06908 3.67206 4.13864 3.8165 4.28353C3.93873 4.40575 4.00273 4.55575 4.0085 4.73353C4.01428 4.91131 3.95584 5.07797 3.83317 5.23353C3.5665 5.57797 3.36095 5.95575 3.2165 6.36686C3.07206 6.77797 2.99984 7.21131 2.99984 7.66686C2.99984 8.56686 3.26384 9.36975 3.79184 10.0755C4.31984 10.7813 5.00028 11.2618 5.83317 11.5169C5.97762 11.5613 6.09717 11.6446 6.19184 11.7669C6.2865 11.8891 6.33362 12.0224 6.33317 12.1669C6.33317 12.3891 6.25539 12.5642 6.09984 12.6922C5.94428 12.8202 5.76095 12.8562 5.54984 12.8002ZM8.44984 12.8002C8.23873 12.8558 8.05539 12.8169 7.89984 12.6835C7.74428 12.5502 7.6665 12.3724 7.6665 12.1502C7.6665 12.0169 7.71384 11.8891 7.8085 11.7669C7.90317 11.6446 8.0225 11.5613 8.1665 11.5169C8.99984 11.2502 9.6805 10.7669 10.2085 10.0669C10.7365 9.36686 11.0003 8.56686 10.9998 7.66686C10.9998 6.55575 10.6109 5.61131 9.83317 4.83353C9.05539 4.05575 8.11095 3.66686 6.99984 3.66686H6.94984L7.2165 3.93353C7.33873 4.05575 7.39984 4.21131 7.39984 4.4002C7.39984 4.58908 7.33873 4.74464 7.2165 4.86686C7.09428 4.98908 6.93873 5.0502 6.74984 5.0502C6.56095 5.0502 6.40539 4.98908 6.28317 4.86686L4.88317 3.46686C4.8165 3.4002 4.76939 3.32797 4.74184 3.2502C4.71428 3.17242 4.70028 3.08908 4.69984 3.0002C4.69939 2.91131 4.71339 2.82797 4.74184 2.7502C4.77028 2.67242 4.81739 2.6002 4.88317 2.53353L6.28317 1.13353C6.40539 1.01131 6.56095 0.950195 6.74984 0.950195C6.93873 0.950195 7.09428 1.01131 7.2165 1.13353C7.33873 1.25575 7.39984 1.41131 7.39984 1.6002C7.39984 1.78908 7.33873 1.94464 7.2165 2.06686L6.94984 2.33353H6.99984C8.48873 2.33353 9.74984 2.8502 10.7832 3.88353C11.8165 4.91686 12.3332 6.17797 12.3332 7.66686C12.3332 8.87797 11.9721 9.95575 11.2498 10.9002C10.5276 11.8446 9.59428 12.478 8.44984 12.8002Z" fill="white"/>
</svg>
