<svg width="14" height="14" viewBox="0 0 14 14" fill="none" xmlns="http://www.w3.org/2000/svg">
<path d="M7.03032 9.20247L7 9.17934L6.96968 9.20247L4.6106 11.0018L5.49716 8.02894L5.50744 7.99446L5.47801 7.97376L3.28105 6.42788H6.01785H6.05471L6.06561 6.39267L7 3.37566L7.93438 6.39267L7.94529 6.42788H7.98215H10.719L8.52199 7.97376L8.49256 7.99446L8.50284 8.02894L9.3894 11.0018L7.03032 9.20247ZM3.89869 12.9407L3.89872 12.9408L3.90066 12.9393L7 10.604L10.0993 12.9393L10.0993 12.9394L10.1015 12.9408C10.2192 13.0202 10.3407 13.0576 10.465 13.0485C10.5832 13.0397 10.6926 13.0066 10.7924 12.9488C10.8952 12.8892 10.9726 12.8008 11.0248 12.6858C11.0789 12.5663 11.0794 12.4394 11.0297 12.3082L9.84562 8.45893L12.7866 6.35859C12.9131 6.28523 12.9966 6.18604 13.0301 6.06034C13.0625 5.93868 13.0552 5.81764 13.0087 5.69881C12.9629 5.58191 12.8932 5.48661 12.7993 5.41448C12.7034 5.34084 12.5886 5.3049 12.4576 5.3049H8.75421L7.55233 1.37318L7.55237 1.37317L7.55165 1.37112C7.50555 1.24078 7.43427 1.13645 7.33664 1.06081C7.23849 0.984781 7.12531 0.947853 6.99911 0.950096C6.874 0.95232 6.7615 0.989622 6.66325 1.06216C6.56406 1.1354 6.49255 1.24002 6.44715 1.37262L6.44712 1.37261L6.44664 1.3742L5.24476 5.3049H1.54133C1.41098 5.3049 1.29658 5.34088 1.20073 5.41448C1.10679 5.48661 1.03707 5.58191 0.991291 5.69881C0.944752 5.81765 0.937458 5.93868 0.969893 6.06034C1.00341 6.18604 1.08685 6.28523 1.21338 6.35859L4.15438 8.45893L2.97033 12.3082C2.9206 12.4399 2.921 12.567 2.97527 12.6859C3.02743 12.8002 3.10478 12.8885 3.2074 12.9486L3.20787 12.9489C3.30755 13.0059 3.41672 13.039 3.53472 13.0484C3.65918 13.0584 3.78093 13.0208 3.89869 12.9407Z" fill="white" stroke="white" stroke-width="0.1"/>
</svg>
