<svg width="14" height="14" viewBox="0 0 14 14" fill="none" xmlns="http://www.w3.org/2000/svg">
<g clip-path="url(#clip0_118_31)">
<path d="M9.91667 8.16667C10.0714 8.16667 10.2197 8.10521 10.3291 7.99581C10.4385 7.88642 10.5 7.73804 10.5 7.58333C10.5 7.42862 10.4385 7.28025 10.3291 7.17085C10.2197 7.06146 10.0714 7 9.91667 7C9.76196 7 9.61358 7.06146 9.50419 7.17085C9.39479 7.28025 9.33333 7.42862 9.33333 7.58333C9.33333 7.73804 9.39479 7.88642 9.50419 7.99581C9.61358 8.10521 9.76196 8.16667 9.91667 8.16667ZM9.91667 10.5C10.0714 10.5 10.2197 10.4385 10.3291 10.3291C10.4385 10.2197 10.5 10.0714 10.5 9.91667C10.5 9.76196 10.4385 9.61358 10.3291 9.50419C10.2197 9.39479 10.0714 9.33333 9.91667 9.33333C9.76196 9.33333 9.61358 9.39479 9.50419 9.50419C9.39479 9.61358 9.33333 9.76196 9.33333 9.91667C9.33333 10.0714 9.39479 10.2197 9.50419 10.3291C9.61358 10.4385 9.76196 10.5 9.91667 10.5ZM7.58333 7.58333C7.58333 7.73804 7.52187 7.88642 7.41248 7.99581C7.30308 8.10521 7.15471 8.16667 7 8.16667C6.84529 8.16667 6.69692 8.10521 6.58752 7.99581C6.47812 7.88642 6.41667 7.73804 6.41667 7.58333C6.41667 7.42862 6.47812 7.28025 6.58752 7.17085C6.69692 7.06146 6.84529 7 7 7C7.15471 7 7.30308 7.06146 7.41248 7.17085C7.52187 7.28025 7.58333 7.42862 7.58333 7.58333ZM7.58333 9.91667C7.58333 10.0714 7.52187 10.2197 7.41248 10.3291C7.30308 10.4385 7.15471 10.5 7 10.5C6.84529 10.5 6.69692 10.4385 6.58752 10.3291C6.47812 10.2197 6.41667 10.0714 6.41667 9.91667C6.41667 9.76196 6.47812 9.61358 6.58752 9.50419C6.69692 9.39479 6.84529 9.33333 7 9.33333C7.15471 9.33333 7.30308 9.39479 7.41248 9.50419C7.52187 9.61358 7.58333 9.76196 7.58333 9.91667ZM4.08333 8.16667C4.23804 8.16667 4.38642 8.10521 4.49581 7.99581C4.60521 7.88642 4.66667 7.73804 4.66667 7.58333C4.66667 7.42862 4.60521 7.28025 4.49581 7.17085C4.38642 7.06146 4.23804 7 4.08333 7C3.92862 7 3.78025 7.06146 3.67085 7.17085C3.56146 7.28025 3.5 7.42862 3.5 7.58333C3.5 7.73804 3.56146 7.88642 3.67085 7.99581C3.78025 8.10521 3.92862 8.16667 4.08333 8.16667ZM4.08333 10.5C4.23804 10.5 4.38642 10.4385 4.49581 10.3291C4.60521 10.2197 4.66667 10.0714 4.66667 9.91667C4.66667 9.76196 4.60521 9.61358 4.49581 9.50419C4.38642 9.39479 4.23804 9.33333 4.08333 9.33333C3.92862 9.33333 3.78025 9.39479 3.67085 9.50419C3.56146 9.61358 3.5 9.76196 3.5 9.91667C3.5 10.0714 3.56146 10.2197 3.67085 10.3291C3.78025 10.4385 3.92862 10.5 4.08333 10.5Z" fill="white" stroke="white" stroke-width="0.1"/>
<path fill-rule="evenodd" clip-rule="evenodd" d="M4.08356 1.021C4.1996 1.021 4.31088 1.06709 4.39292 1.14914C4.47497 1.23118 4.52106 1.34246 4.52106 1.4585V1.90358C4.90723 1.896 5.33248 1.896 5.80031 1.896H8.19956C8.66798 1.896 9.09323 1.896 9.4794 1.90358V1.4585C9.4794 1.34246 9.52549 1.23118 9.60754 1.14914C9.68958 1.06709 9.80086 1.021 9.9169 1.021C10.0329 1.021 10.1442 1.06709 10.2263 1.14914C10.3083 1.23118 10.3544 1.34246 10.3544 1.4585V1.94091C10.5061 1.95258 10.6496 1.96716 10.7855 1.98525C11.4691 2.07741 12.0227 2.27108 12.4596 2.70741C12.896 3.14433 13.0896 3.69791 13.1818 4.38158C13.2711 5.04658 13.2711 5.89533 13.2711 6.9675V8.1995C13.2711 9.27166 13.2711 10.121 13.1818 10.7854C13.0896 11.4691 12.896 12.0227 12.4596 12.4596C12.0227 12.8959 11.4691 13.0896 10.7855 13.1817C10.1205 13.271 9.27173 13.271 8.19956 13.271H5.80148C4.72931 13.271 3.87998 13.271 3.21556 13.1817C2.5319 13.0896 1.97831 12.8959 1.5414 12.4596C1.10506 12.0227 0.911397 11.4691 0.81923 10.7854C0.72998 10.1204 0.72998 9.27166 0.72998 8.1995V6.9675C0.72998 5.89533 0.72998 5.046 0.81923 4.38158C0.911397 3.69791 1.10506 3.14433 1.5414 2.70741C1.97831 2.27108 2.5319 2.07741 3.21556 1.98525C3.35148 1.96716 3.49556 1.95258 3.64665 1.94091V1.4585C3.64665 1.34256 3.69266 1.23137 3.77458 1.14934C3.8565 1.06731 3.96763 1.02115 4.08356 1.021ZM3.33106 2.85266C2.74481 2.93141 2.40648 3.07958 2.15973 3.32633C1.91298 3.57308 1.76481 3.91141 1.68606 4.49825C1.67265 4.59741 1.66156 4.70241 1.65223 4.81266H12.3482C12.3389 4.70183 12.3278 4.59741 12.3144 4.49766C12.2356 3.91141 12.0875 3.57308 11.8407 3.32633C11.594 3.07958 11.2556 2.93141 10.6688 2.85266C10.0697 2.77216 9.27931 2.771 8.1669 2.771H5.83356C4.72115 2.771 3.93131 2.77216 3.33106 2.85266ZM1.6044 7.00016C1.6044 6.502 1.6044 6.06858 1.61198 5.68766H12.3885C12.3961 6.06858 12.3961 6.502 12.3961 7.00016V8.16683C12.3961 9.27925 12.3949 10.0697 12.3144 10.6693C12.2356 11.2556 12.0875 11.5939 11.8407 11.8407C11.594 12.0874 11.2556 12.2356 10.6688 12.3143C10.0697 12.3948 9.27931 12.396 8.1669 12.396H5.83356C4.72115 12.396 3.93131 12.3948 3.33106 12.3143C2.74481 12.2356 2.40648 12.0874 2.15973 11.8407C1.91298 11.5939 1.76481 11.2556 1.68606 10.6687C1.60556 10.0697 1.6044 9.27925 1.6044 8.16683V7.00016Z" fill="white" stroke="white" stroke-width="0.1"/>
</g>
<defs>
<clipPath id="clip0_118_31">
<rect width="14" height="14" fill="white"/>
</clipPath>
</defs>
</svg>
